ffmpeg started on 2016-12-06 at 13:06:18
Report written to "Output/x264/results/ffmpeg/crowd_run_2160p50fast15000k.log"
Command line:
Tools/ffmpeg/ffmpeg -benchmark -y -i Input/y4m/crowd_run_2160p50.y4m -c:v libx264 -preset fast -b:v 15000k -an Output/x264/encoded/crowd_run_2160p50fast15000k.mkv
ffmpeg version N-82227-gdb23fde Copyright (c) 2000-2016 the FFmpeg developers
  built with gcc 5.4.0 (Ubuntu 5.4.0-6ubuntu1~16.04.2) 20160609
  configuration: --prefix=/home/jaroslav/ffmpeg_build --pkg-config-flags=--static --extra-cflags=-I/home/jaroslav/ffmpeg_build/include --extra-ldflags=-L/home/jaroslav/ffmpeg_build/lib --bindir=/home/jaroslav/bin --enable-gpl --enable-libass --enable-libfdk-aac --enable-libfreetype --enable-libmp3lame --enable-libopus --enable-libtheora --enable-libvorbis --enable-libvpx --enable-libx264 --enable-libx265 --enable-nvenc --enable-libmfx --enable-libxvid --enable-libgsm --enable-libopencore-amrnb --enable-version3 --enable-nonfree
  libavutil      55. 35.100 / 55. 35.100
  libavcodec     57. 66.101 / 57. 66.101
  libavformat    57. 57.100 / 57. 57.100
  libavdevice    57.  2.100 / 57.  2.100
  libavfilter     6. 66.100 /  6. 66.100
  libswscale      4.  3.100 /  4.  3.100
  libswresample   2.  4.100 /  2.  4.100
  libpostproc    54.  2.100 / 54.  2.100
Input #0, yuv4mpegpipe, from 'Input/y4m/crowd_run_2160p50.y4m':
  Duration: 00:00:10.00, start: 0.000000, bitrate: 4976642 kb/s
    Stream #0:0: Video: rawvideo (I420 / 0x30323449), yuv420p(progressive), 3840x2160, SAR 1:1 DAR 16:9, 50 fps, 50 tbr, 50 tbn, 50 tbc
[libx264 @ 0x2b951c0] using SAR=1/1
[libx264 @ 0x2b951c0] using cpu capabilities: MMX2 SSE2Fast SSSE3 SSE4.2 AVX FMA3 AVX2 LZCNT BMI2
[libx264 @ 0x2b951c0] profile High, level 5.2
[libx264 @ 0x2b951c0] 264 - core 148 - H.264/MPEG-4 AVC codec - Copyleft 2003-2016 - http://www.videolan.org/x264.html - options: cabac=1 ref=2 deblock=1:0:0 analyse=0x3:0x113 me=hex subme=6 psy=1 psy_rd=1.00:0.00 mixed_ref=1 me_range=16 chroma_me=1 trellis=1 8x8dct=1 cqm=0 deadzone=21,11 fast_pskip=1 chroma_qp_offset=-2 threads=6 lookahead_threads=1 sliced_threads=0 nr=0 decimate=1 interlaced=0 bluray_compat=0 constrained_intra=0 bframes=3 b_pyramid=2 b_adapt=1 b_bias=0 direct=1 weightb=1 open_gop=0 weightp=1 keyint=250 keyint_min=25 scenecut=40 intra_refresh=0 rc_lookahead=30 rc=abr mbtree=1 bitrate=15000 ratetol=1.0 qcomp=0.60 qpmin=0 qpmax=69 qpstep=4 ip_ratio=1.40 aq=1:1.00
Output #0, matroska, to 'Output/x264/encoded/crowd_run_2160p50fast15000k.mkv':
  Metadata:
    encoder         : Lavf57.57.100
    Stream #0:0: Video: h264 (libx264) (H264 / 0x34363248), yuv420p, 3840x2160 [SAR 1:1 DAR 16:9], q=-1--1, 15000 kb/s, 50 fps, 1k tbn, 50 tbc
    Metadata:
      encoder         : Lavc57.66.101 libx264
    Side data:
      cpb: bitrate max/min/avg: 0/0/15000000 buffer size: 0 vbv_delay: -1
Stream mapping:
  Stream #0:0 -> #0:0 (rawvideo (native) -> h264 (libx264))
Press [q] to stop, [?] for help
frame=    7 fps=0.0 q=0.0 size=       0kB time=00:00:00.00 bitrate=N/A speed=   0x    frame=   24 fps= 23 q=0.0 size=       0kB time=00:00:00.00 bitrate=N/A speed=   0x    frame=   37 fps= 12 q=0.0 size=       0kB time=00:00:00.00 bitrate=N/A speed=   0x    frame=   42 fps= 12 q=31.0 size=       1kB time=-00:00:00.01 bitrate=N/A speed=N/A    frame=   44 fps= 11 q=32.0 size=       1kB time=00:00:00.02 bitrate= 279.6kbits/s speed=0.0051x    frame=   48 fps= 10 q=38.0 size=       1kB time=00:00:00.10 bitrate=  58.1kbits/s speed=0.0217x    frame=   53 fps= 10 q=48.0 size=       1kB time=00:00:00.20 bitrate=  29.2kbits/s speed=0.0379x    frame=   59 fps= 10 q=48.0 size=       1kB time=00:00:00.32 bitrate=  18.3kbits/s speed=0.0551x    frame=   65 fps= 10 q=47.0 size=       1kB time=00:00:00.44 bitrate=  13.3kbits/s speed=0.0697x    frame=   70 fps= 10 q=47.0 size=       1kB time=00:00:00.54 bitrate=  10.9kbits/s speed=0.078x    frame=   79 fps= 10 q=46.0 size=       1kB time=00:00:00.72 bitrate=   8.1kbits/s speed=0.0955x    frame=   86 fps= 10 q=46.0 size=       1kB time=00:00:00.86 bitrate=   6.8kbits/s speed=0.105x    frame=   90 fps= 10 q=46.0 size=       1kB time=00:00:00.94 bitrate=   6.2kbits/s speed=0.107x    frame=   94 fps=9.8 q=46.0 size=       1kB time=00:00:01.02 bitrate=   5.8kbits/s speed=0.106x    frame=   99 fps=9.3 q=45.0 size=       1kB time=00:00:01.12 bitrate=   5.2kbits/s speed=0.106x    frame=  103 fps=9.1 q=45.0 size=       1kB time=00:00:01.20 bitrate=   4.9kbits/s speed=0.107x    frame=  109 fps=9.3 q=45.0 size=       1kB time=00:00:01.32 bitrate=   4.4kbits/s speed=0.112x    frame=  114 fps=9.2 q=45.0 size=       1kB time=00:00:01.42 bitrate=   4.1kbits/s speed=0.114x    frame=  120 fps=9.3 q=45.0 size=       1kB time=00:00:01.54 bitrate=   3.8kbits/s speed=0.119x    frame=  123 fps=9.1 q=45.0 size=       1kB time=00:00:01.60 bitrate=   3.7kbits/s speed=0.119x    frame=  129 fps=9.0 q=44.0 size=       1kB time=00:00:01.72 bitrate=   3.4kbits/s speed=0.12x    frame=  133 fps=8.8 q=44.0 size=       1kB time=00:00:01.80 bitrate=   3.3kbits/s speed=0.12x    frame=  136 fps=8.6 q=44.0 size=       1kB time=00:00:01.86 bitrate=   3.2kbits/s speed=0.118x    frame=  143 fps=8.7 q=44.0 size=       1kB time=00:00:02.00 bitrate=   2.9kbits/s speed=0.122x    frame=  148 fps=8.7 q=44.0 size=       1kB time=00:00:02.10 bitrate=   2.8kbits/s speed=0.124x    frame=  155 fps=8.8 q=44.0 size=       1kB time=00:00:02.24 bitrate=   2.6kbits/s speed=0.128x    frame=  159 fps=8.8 q=44.0 size=       1kB time=00:00:02.32 bitrate=   2.5kbits/s speed=0.128x    frame=  166 fps=8.9 q=44.0 size=    5139kB time=00:00:02.46 bitrate=17104.8kbits/s speed=0.132x    frame=  172 fps=8.9 q=44.0 size=    5139kB time=00:00:02.58 bitrate=16309.5kbits/s speed=0.134x    frame=  176 fps=8.9 q=44.0 size=    5139kB time=00:00:02.66 bitrate=15819.2kbits/s speed=0.135x    frame=  183 fps=9.0 q=43.0 size=    5139kB time=00:00:02.80 bitrate=15028.5kbits/s speed=0.138x    frame=  187 fps=8.9 q=43.0 size=    5139kB time=00:00:02.88 bitrate=14611.2kbits/s speed=0.138x    frame=  190 fps=8.9 q=43.0 size=    5139kB time=00:00:02.94 bitrate=14313.1kbits/s speed=0.137x    frame=  196 fps=8.9 q=43.0 size=    5139kB time=00:00:03.06 bitrate=13752.0kbits/s speed=0.139x    frame=  201 fps=9.0 q=43.0 size=    5139kB time=00:00:03.16 bitrate=13316.9kbits/s speed=0.141x    frame=  203 fps=8.8 q=43.0 size=    5139kB time=00:00:03.20 bitrate=13150.5kbits/s speed=0.139x    frame=  208 fps=8.7 q=43.0 size=    5139kB time=00:00:03.30 bitrate=12752.2kbits/s speed=0.138x    frame=  213 fps=8.6 q=43.0 size=    5139kB time=00:00:03.40 bitrate=12377.2kbits/s speed=0.138x    frame=  218 fps=8.6 q=43.0 size=    5139kB time=00:00:03.50 bitrate=12023.7kbits/s speed=0.138x    frame=  220 fps=8.4 q=43.0 size=    5139kB time=00:00:03.54 bitrate=11887.8kbits/s speed=0.136x    frame=  222 fps=8.3 q=43.0 size=    5139kB time=00:00:03.58 bitrate=11755.1kbits/s speed=0.134x    frame=  225 fps=8.1 q=43.0 size=    5139kB time=00:00:03.64 bitrate=11561.3kbits/s speed=0.131x    frame=  227 fps=8.0 q=43.0 size=    5139kB time=00:00:03.68 bitrate=11435.7kbits/s speed=0.13x    frame=  230 fps=8.0 q=43.0 size=    5139kB time=00:00:03.74 bitrate=11252.3kbits/s speed=0.129x    frame=  234 fps=7.8 q=43.0 size=    5139kB time=00:00:03.82 bitrate=11016.7kbits/s speed=0.128x    frame=  240 fps=7.8 q=43.0 size=    5139kB time=00:00:03.94 bitrate=10681.3kbits/s speed=0.128x    frame=  242 fps=7.7 q=43.0 size=    5139kB time=00:00:03.98 bitrate=10573.9kbits/s speed=0.126x    frame=  244 fps=7.6 q=43.0 size=    5139kB time=00:00:04.02 bitrate=10468.8kbits/s speed=0.125x    frame=  246 fps=7.4 q=43.0 size=    5139kB time=00:00:04.06 bitrate=10365.6kbits/s speed=0.123x    frame=  249 fps=7.4 q=43.0 size=    5139kB time=00:00:04.12 bitrate=10214.7kbits/s speed=0.122x    frame=  254 fps=7.3 q=43.0 size=    5139kB time=00:00:04.22 bitrate=9972.7kbits/s speed=0.122x    frame=  257 fps=7.2 q=43.0 size=    5139kB time=00:00:04.28 bitrate=9833.0kbits/s speed=0.12x    frame=  258 fps=7.2 q=43.0 size=    5139kB time=00:00:04.30 bitrate=9787.2kbits/s speed=0.119x    frame=  261 fps=7.1 q=43.0 size=    5139kB time=00:00:04.36 bitrate=9652.6kbits/s speed=0.119x    frame=  265 fps=7.1 q=43.0 size=    5139kB time=00:00:04.44 bitrate=9478.7kbits/s speed=0.119x    frame=  270 fps=7.1 q=43.0 size=    5139kB time=00:00:04.54 bitrate=9270.0kbits/s speed=0.119x    frame=  274 fps=7.0 q=43.0 size=    5139kB time=00:00:04.62 bitrate=9109.5kbits/s speed=0.118x    frame=  281 fps=7.1 q=43.0 size=    5139kB time=00:00:04.76 bitrate=8841.6kbits/s speed=0.12x    frame=  287 fps=7.0 q=43.0 size=    5139kB time=00:00:04.88 bitrate=8624.2kbits/s speed=0.12x    frame=  295 fps=7.1 q=43.0 size=    9492kB time=00:00:05.04 bitrate=15425.6kbits/s speed=0.122x    frame=  302 fps=7.2 q=43.0 size=    9492kB time=00:00:05.18 bitrate=15008.8kbits/s speed=0.124x    frame=  307 fps=7.2 q=43.0 size=    9492kB time=00:00:05.28 bitrate=14724.5kbits/s speed=0.124x    frame=  313 fps=7.3 q=43.0 size=    9492kB time=00:00:05.40 bitrate=14397.4kbits/s speed=0.126x    frame=  318 fps=7.3 q=43.0 size=    9492kB time=00:00:05.50 bitrate=14135.7kbits/s speed=0.126x    frame=  323 fps=7.3 q=43.0 size=    9492kB time=00:00:05.60 bitrate=13883.3kbits/s speed=0.127x    frame=  329 fps=7.4 q=43.0 size=    9492kB time=00:00:05.72 bitrate=13592.1kbits/s speed=0.128x    frame=  337 fps=7.4 q=43.0 size=    9492kB time=00:00:05.88 bitrate=13222.3kbits/s speed=0.129x    frame=  344 fps=7.5 q=43.0 size=    9492kB time=00:00:06.02 bitrate=12914.9kbits/s speed=0.131x    frame=  350 fps=7.5 q=43.0 size=    9492kB time=00:00:06.14 bitrate=12662.5kbits/s speed=0.132x    frame=  355 fps=7.5 q=43.0 size=    9492kB time=00:00:06.24 bitrate=12459.6kbits/s speed=0.133x    frame=  362 fps=7.6 q=43.0 size=    9492kB time=00:00:06.38 bitrate=12186.2kbits/s speed=0.134x    frame=  367 fps=7.6 q=43.0 size=    9492kB time=00:00:06.48 bitrate=11998.2kbits/s speed=0.135x    frame=  373 fps=7.7 q=43.0 size=    9492kB time=00:00:06.60 bitrate=11780.1kbits/s speed=0.136x    frame=  380 fps=7.7 q=43.0 size=    9492kB time=00:00:06.74 bitrate=11535.4kbits/s speed=0.137x    frame=  385 fps=7.7 q=43.0 size=    9492kB time=00:00:06.84 bitrate=11366.8kbits/s speed=0.137x    frame=  393 fps=7.8 q=43.0 size=    9492kB time=00:00:07.00 bitrate=11107.0kbits/s speed=0.138x    frame=  400 fps=7.8 q=43.0 size=    9492kB time=00:00:07.14 bitrate=10889.3kbits/s speed=0.14x    frame=  405 fps=7.8 q=43.0 size=    9492kB time=00:00:07.24 bitrate=10738.9kbits/s speed=0.14x    frame=  413 fps=7.9 q=43.0 size=    9492kB time=00:00:07.40 bitrate=10506.7kbits/s speed=0.142x    frame=  419 fps=7.9 q=43.0 size=    9492kB time=00:00:07.52 bitrate=10339.1kbits/s speed=0.142x    frame=  426 fps=8.0 q=43.0 size=    9492kB time=00:00:07.66 bitrate=10150.2kbits/s speed=0.143x    frame=  433 fps=8.0 q=43.0 size=   14662kB time=00:00:07.80 bitrate=15397.2kbits/s speed=0.144x    frame=  439 fps=8.0 q=43.0 size=   14662kB time=00:00:07.92 bitrate=15163.9kbits/s speed=0.145x    frame=  444 fps=8.0 q=43.0 size=   14662kB time=00:00:08.02 bitrate=14974.9kbits/s speed=0.145x    frame=  450 fps=8.1 q=43.0 size=   14662kB time=00:00:08.14 bitrate=14754.1kbits/s speed=0.146x    frame=  457 fps=8.1 q=43.0 size=   14662kB time=00:00:08.28 bitrate=14504.7kbits/s speed=0.147x    frame=  462 fps=8.1 q=43.0 size=   14662kB time=00:00:08.38 bitrate=14331.6kbits/s speed=0.147x    frame=  468 fps=8.2 q=43.0 size=   14662kB time=00:00:08.50 bitrate=14129.3kbits/s speed=0.148x    frame=  474 fps=8.2 q=43.0 size=   14662kB time=00:00:08.62 bitrate=13932.6kbits/s speed=0.149x    frame=  481 fps=8.2 q=43.0 size=   14662kB time=00:00:08.76 bitrate=13710.0kbits/s speed=0.15x    frame=  487 fps=8.2 q=43.0 size=   14662kB time=00:00:08.88 bitrate=13524.7kbits/s speed=0.15x    frame=  493 fps=8.3 q=43.0 size=   14662kB time=00:00:09.00 bitrate=13344.4kbits/s speed=0.151x    frame=  498 fps=8.3 q=43.0 size=   14662kB time=00:00:09.10 bitrate=13197.8kbits/s speed=0.151x    frame=  500 fps=7.9 q=-1.0 Lsize=   18376kB time=00:00:09.94 bitrate=15142.7kbits/s speed=0.158x    
video:18371kB audio:0kB subtitle:0kB other streams:0kB global headers:0kB muxing overhead: 0.025532%
bench: utime=167.368s
bench: maxrss=1581944kB
[libx264 @ 0x2b951c0] frame I:2     Avg QP:32.19  size:559020
[libx264 @ 0x2b951c0] frame P:126   Avg QP:41.79  size: 67144
[libx264 @ 0x2b951c0] frame B:372   Avg QP:44.45  size: 24820
[libx264 @ 0x2b951c0] consecutive B-frames:  0.8%  0.0%  0.0% 99.2%
[libx264 @ 0x2b951c0] mb I  I16..4: 10.6% 74.9% 14.5%
[libx264 @ 0x2b951c0] mb P  I16..4:  1.9%  7.8%  0.2%  P16..4: 32.9%  7.0%  3.2%  0.0%  0.0%    skip:46.9%
[libx264 @ 0x2b951c0] mb B  I16..4:  1.4%  2.7%  0.0%  B16..8: 18.8%  2.3%  0.0%  direct: 7.8%  skip:67.1%  L0:42.1% L1:55.6% BI: 2.2%
[libx264 @ 0x2b951c0] final ratefactor: 34.73
[libx264 @ 0x2b951c0] 8x8 transform intra:71.8% inter:85.8%
[libx264 @ 0x2b951c0] coded y,uvDC,uvAC intra: 30.0% 56.2% 19.6% inter: 5.5% 7.8% 0.2%
[libx264 @ 0x2b951c0] i16 v,h,dc,p: 45% 22% 14% 20%
[libx264 @ 0x2b951c0] i8 v,h,dc,ddl,ddr,vr,hd,vl,hu: 17% 11% 31%  7%  6%  8%  7%  8%  6%
[libx264 @ 0x2b951c0] i4 v,h,dc,ddl,ddr,vr,hd,vl,hu: 21% 16% 16%  9%  9%  9%  8%  8%  6%
[libx264 @ 0x2b951c0] i8c dc,h,v,p: 73%  9% 15%  3%
[libx264 @ 0x2b951c0] Weighted P-Frames: Y:1.6% UV:0.0%
[libx264 @ 0x2b951c0] ref P L0: 73.9% 26.1%
[libx264 @ 0x2b951c0] ref B L0: 91.4%  8.6%
[libx264 @ 0x2b951c0] ref B L1: 98.3%  1.7%
[libx264 @ 0x2b951c0] kb/s:15048.97
